HIERARCHY
ROOT Hips
{
	OFFSET 0.000000 0.000000 0.000000
	CHANNELS 6 Xposition Yposition Zposition Zrotation Yrotation Xrotation 
	JOINT LowerBack
	{
		OFFSET 0.000000 0.000000 0.000000
		CHANNELS 3 Zrotation Yrotation Xrotation
		JOINT Spine
		{
			OFFSET 0.028270 2.035590 -0.193380
			CHANNELS 3 Zrotation Yrotation Xrotation
			JOINT Spine1
			{
				OFFSET 0.056720 2.048850 -0.042750
				CHANNELS 3 Zrotation Yrotation Xrotation
				JOINT Neck
				{
					OFFSET 0.000000 0.000000 0.000000
					CHANNELS 3 Zrotation Yrotation Xrotation
					JOINT Neck1
					{
						OFFSET -0.054170 1.746240 0.172020
						CHANNELS 3 Zrotation Yrotation Xrotation
						JOINT Head
						{
							OFFSET 0.104070 1.761360 -0.123970
							CHANNELS 3 Zrotation Yrotation Xrotation
							End Site
							{
								OFFSET 0.000000 0.000000 0.000000
							}
						}
					}
				}
				JOINT LeftShoulder
				{
					OFFSET 0.000000 0.000000 0.000000
					CHANNELS 3 Zrotation Yrotation Xrotation
					JOINT LeftArm
					{
						OFFSET 3.362410 1.200890 -0.311210
						CHANNELS 3 Zrotation Yrotation Xrotation
						JOINT LeftForeArm
						{
							OFFSET 4.983000 -0.000000 -0.000000
							CHANNELS 3 Zrotation Yrotation Xrotation
							JOINT LeftHand
							{
								OFFSET 3.483560 -0.000000 -0.000000
								CHANNELS 3 Zrotation Yrotation Xrotation
								JOINT LeftFingerBase
								{
									OFFSET 0.000000 0.000000 0.000000
									CHANNELS 3 Zrotation Yrotation Xrotation
									JOINT LeftHandIndex1
									{
										OFFSET 0.715260 -0.000000 -0.000000
										CHANNELS 3 Zrotation Yrotation Xrotation
										End Site
										{
											OFFSET 0.000000 0.000000 0.000000
										}
									}
								}
								JOINT LThumb
								{
									OFFSET 0.000000 0.000000 0.000000
									CHANNELS 3 Zrotation Yrotation Xrotation
									End Site
									{
										OFFSET 0.000000 0.000000 0.000000
									}
								}
							}
						}
					}
				}
				JOINT RightShoulder
				{
					OFFSET 0.000000 0.000000 0.000000
					CHANNELS 3 Zrotation Yrotation Xrotation
					JOINT RightArm
					{
						OFFSET -3.136600 1.374050 -0.404650
						CHANNELS 3 Zrotation Yrotation Xrotation
						JOINT RightForeArm
						{
							OFFSET -5.241900 -0.000000 -0.000000
							CHANNELS 3 Zrotation Yrotation Xrotation
							JOINT RightHand
							{
								OFFSET -3.444170 -0.000000 -0.000000
								CHANNELS 3 Zrotation Yrotation Xrotation
								JOINT RightFingerBase
								{
									OFFSET 0.000000 0.000000 0.000000
									CHANNELS 3 Zrotation Yrotation Xrotation
									JOINT RightHandIndex1
									{
										OFFSET -0.622530 -0.000000 -0.000000
										CHANNELS 3 Zrotation Yrotation Xrotation
										End Site
										{
											OFFSET 0.000000 0.000000 0.000000
										}
									}
								}
								JOINT RThumb
								{
									OFFSET 0.000000 0.000000 0.000000
									CHANNELS 3 Zrotation Yrotation Xrotation
									End Site
									{
										OFFSET 0.000000 0.000000 0.000000
									}
								}
							}
						}
					}
				}
			}
		}
	}
}
}
MOTION
Frames: 13
Frame Time: 0.008333
-2.400902 17.483122 -2.328137 -117.381185 84.428778 -99.808611 4.878077 -3.716558 -1.507829 0.727410 -4.076892 -3.437315 -6.086046 -3.992161 -1.528517 10.566561 -17.165319 -9.865320 -2.465030 -0.166964 -0.561865 0.000000 0.000000 0.000000 6.131330 6.808379 -0.496256 -76.339845 8.368214 32.939792 -179.642912 -71.411594 179.976892 2.585590 -5.792531 -0.142761 -0.002117 0.667688 -0.000000 0.000000 0.000000 0.000000 0.000000 0.000000 0.000000 6.982024 -11.403271 -0.948275 69.422067 -13.671717 26.969970 179.458847 70.003372 179.986762 -1.161146 8.175654 -0.084229 -0.037518 -0.558794 -0.000000 0.000000 0.000000 0.000000 0.000000 0.000000 0.000000 
-2.165771 17.504604 -2.344213 -119.414342 84.341563 -101.850026 4.876827 -3.715406 -1.621254 0.736533 -4.080351 -3.448500 -6.047672 -3.996188 -1.486367 10.485400 -17.380450 -9.878288 -2.427306 -0.164241 -0.561138 0.000000 0.000000 0.000000 6.358777 6.780263 -0.546179 -76.449384 8.399488 33.206707 -179.646408 -71.322842 179.978734 2.323684 -5.801039 -0.127768 0.007479 0.667957 -0.000000 0.000000 0.000000 0.000000 0.000000 0.000000 0.000000 6.772975 -11.613928 -0.983229 69.474175 -14.234016 26.543648 179.461525 69.805564 179.987375 -1.020823 8.076641 -0.072185 -0.043138 -0.553207 -0.000000 0.000000 0.000000 0.000000 0.000000 0.000000 0.000000 
-1.932084 17.515084 -2.359853 -121.579652 84.255752 -104.018715 4.852225 -3.709613 -1.729598 0.738324 -4.077435 -3.459627 -6.016155 -3.993857 -1.449036 10.409994 -17.579968 -9.892227 -2.393897 -0.161804 -0.561028 0.000000 0.000000 0.000000 6.564695 6.740767 -0.594714 -76.558633 8.434805 33.434551 -179.655372 -71.263609 179.979856 2.155089 -5.790270 -0.117651 0.014319 0.667312 -0.000000 0.000000 0.000000 0.000000 0.000000 0.000000 0.000000 6.589881 -11.807470 -1.009372 69.552508 -14.734562 26.115214 179.463417 69.662189 179.987892 -0.901065 8.012101 -0.062331 -0.047836 -0.548649 -0.000000 0.000000 0.000000 0.000000 0.000000 0.000000 0.000000 
-1.700463 17.514204 -2.375480 -123.670367 84.149894 -106.108290 4.830324 -3.694729 -1.827810 0.737935 -4.065230 -3.468378 -5.991390 -3.981823 -1.409226 10.339893 -17.753630 -9.912779 -2.364068 -0.159479 -0.563497 0.000000 0.000000 0.000000 6.741946 6.735149 -0.636779 -76.663930 8.418386 33.651458 -179.664818 -71.254763 179.980383 2.075707 -5.764582 -0.112602 0.017704 0.666094 -0.000000 0.000000 0.000000 0.000000 0.000000 0.000000 0.000000 6.428644 -11.971955 -1.030285 69.666198 -15.168328 25.673042 179.465805 69.575825 179.988320 -0.792942 7.983408 -0.053770 -0.052078 -0.545145 -0.000000 0.000000 0.000000 0.000000 0.000000 0.000000 0.000000 
-1.471385 17.501451 -2.391225 -125.629512 84.017499 -108.067999 4.821146 -3.672167 -1.908160 0.737381 -4.045499 -3.476502 -5.973349 -3.962229 -1.379831 10.270138 -17.895587 -9.930200 -2.338617 -0.157479 -0.565771 0.000000 0.000000 0.000000 6.880953 6.713582 -0.672933 -76.769221 8.406784 33.809878 -179.677220 -71.262780 179.980387 2.064149 -5.729010 -0.111233 0.019041 0.664563 -0.000000 0.000000 0.000000 0.000000 0.000000 0.000000 0.000000 6.277453 -12.100717 -1.040081 69.816425 -15.534120 25.230516 179.468841 69.549039 179.988581 -0.713324 7.991738 -0.047699 -0.055343 -0.542818 -0.000000 0.000000 0.000000 0.000000 0.000000 0.000000 0.000000 
-1.245307 17.476452 -2.407342 -127.300829 83.846899 -109.741963 4.842589 -3.638304 -1.967808 0.740307 -4.015800 -3.481892 -5.961224 -3.932255 -1.353486 10.201791 -17.997110 -9.950263 -2.316510 -0.155610 -0.569784 0.000000 0.000000 0.000000 6.980485 6.719414 -0.698270 -76.875960 8.345532 33.934590 -179.686957 -71.310756 179.980124 2.097505 -5.690683 -0.112441 0.018307 0.663091 -0.000000 0.000000 0.000000 0.000000 0.000000 0.000000 0.000000 6.133047 -12.182832 -1.042828 70.008246 -15.832695 24.775465 179.473696 69.575551 179.988702 -0.650294 8.035122 -0.043021 -0.058208 -0.541635 -0.000000 0.000000 0.000000 0.000000 0.000000 0.000000 0.000000 
-1.022612 17.438947 -2.423949 -128.653175 83.638227 -111.106569 4.898457 -3.593418 -1.998738 0.747472 -3.976381 -3.483617 -5.954522 -3.892120 -1.332349 10.135660 -18.052365 -9.971771 -2.297861 -0.153886 -0.575329 0.000000 0.000000 0.000000 7.038115 6.751514 -0.710511 -76.988249 8.232640 34.015152 -179.691942 -71.399654 179.979831 2.144263 -5.657216 -0.114434 0.016476 0.661961 -0.000000 0.000000 0.000000 0.000000 0.000000 0.000000 0.000000 5.994073 -12.211214 -1.038280 70.238063 -16.065811 24.307822 179.480688 69.650094 179.988671 -0.603533 8.109816 -0.039639 -0.060754 -0.541543 -0.000000 0.000000 0.000000 0.000000 0.000000 0.000000 0.000000 
-0.803584 17.388861 -2.441235 -129.655131 83.391840 -112.137889 4.993815 -3.537376 -1.993828 0.759623 -3.927224 -3.481708 -5.953692 -3.841895 -1.322417 10.073580 -18.058730 -9.991036 -2.283639 -0.152437 -0.581428 0.000000 0.000000 0.000000 7.048025 6.789705 -0.708590 -77.111157 8.088846 34.025019 -179.691449 -71.524986 179.979767 2.164661 -5.641920 -0.115326 0.015075 0.661560 -0.000000 0.000000 0.000000 0.000000 0.000000 0.000000 0.000000 5.862972 -12.181441 -1.024126 70.494134 -16.232445 23.832876 179.489304 69.766074 179.988490 -0.576301 8.206973 -0.037850 -0.062844 -0.542388 -0.000000 0.000000 0.000000 0.000000 0.000000 0.000000 0.000000 
-0.588320 17.326340 -2.459412 -130.342227 83.110155 -112.875792 5.128354 -3.470729 -1.949743 0.776552 -3.868753 -3.475171 -5.959026 -3.781912 -1.322354 10.020796 -18.014420 -10.009823 -2.274595 -0.151292 -0.588662 0.000000 0.000000 0.000000 7.007133 6.845245 -0.690392 -77.247042 7.898961 33.965059 -179.683311 -71.703473 179.980134 2.137150 -5.649606 -0.114019 0.014544 0.661975 -0.000000 0.000000 0.000000 0.000000 0.000000 0.000000 0.000000 5.750452 -12.091314 -1.002087 70.761282 -16.330258 23.351015 179.499131 69.917218 179.988193 -0.565565 8.318483 -0.037459 -0.064541 -0.543976 -0.000000 0.000000 0.000000 0.000000 0.000000 0.000000 0.000000 
-0.376810 17.251858 -2.478670 -130.779996 82.797059 -113.387108 5.299315 -3.394899 -1.867074 0.797480 -3.802244 -3.464532 -5.971446 -3.713576 -1.334475 9.982283 -17.919920 -10.026724 -2.272305 -0.150607 -0.596594 0.000000 0.000000 0.000000 6.909045 6.910144 -0.655540 -77.396348 7.672815 33.822670 -179.667863 -71.946781 179.981032 2.047628 -5.684235 -0.109719 0.015378 0.663146 -0.000000 0.000000 0.000000 0.000000 0.000000 0.000000 0.000000 5.670792 -11.941724 -0.972050 71.018455 -16.354637 22.869219 179.509159 70.105211 179.987801 -0.574474 8.433272 -0.038563 -0.065591 -0.545985 -0.000000 0.000000 0.000000 0.000000 0.000000 0.000000 0.000000 
-0.168870 17.166164 -2.499183 -131.061533 82.459119 -113.762201 5.498614 -3.311953 -1.750652 0.820643 -3.729401 -3.450204 -5.992063 -3.638675 -1.357481 9.964819 -17.777906 -10.042600 -2.278138 -0.150488 -0.605395 0.000000 0.000000 0.000000 6.749333 6.989187 -0.604139 -77.556358 7.407883 33.599331 -179.646137 -72.276365 179.982427 1.904388 -5.741791 -0.102622 0.017167 0.664687 -0.000000 0.000000 0.000000 0.000000 0.000000 0.000000 0.000000 5.642585 -11.737293 -0.935775 71.243017 -16.296795 22.397189 179.518487 70.334524 179.987336 -0.608008 8.540480 -0.041760 -0.065672 -0.548075 -0.000000 0.000000 0.000000 0.000000 0.000000 0.000000 0.000000 
0.035757 17.070321 -2.521139 -131.269092 82.102065 -114.075264 5.718522 -3.223792 -1.610972 0.844366 -3.652035 -3.434428 -6.022002 -3.559350 -1.393357 9.972250 -17.594582 -10.054435 -2.293511 -0.151115 -0.614014 0.000000 0.000000 0.000000 6.523396 7.064334 -0.538986 -77.725428 7.130492 33.280942 -179.622504 -72.705799 179.984172 1.724445 -5.824687 -0.093628 0.019634 0.666291 -0.000000 0.000000 0.000000 0.000000 0.000000 0.000000 0.000000 5.681081 -11.487441 -0.892438 71.415226 -16.143118 21.951101 179.525919 70.622705 179.986823 -0.675125 8.627466 -0.047648 -0.064237 -0.549782 -0.000000 0.000000 0.000000 0.000000 0.000000 0.000000 0.000000 
0.237568 16.965853 -2.544772 -131.494846 81.727613 -114.402583 5.953473 -3.133054 -1.465598 0.867461 -3.573194 -3.419239 -6.063302 -3.478773 -1.437445 10.011533 -17.366786 -10.064046 -2.321127 -0.152708 -0.622763 0.000000 0.000000 0.000000 6.221837 7.160338 -0.459956 -77.888313 6.823120 32.891156 -179.599236 -73.260510 179.985907 1.564464 -5.898707 -0.085521 0.020561 0.666672 -0.000000 0.000000 0.000000 0.000000 0.000000 0.000000 0.000000 5.813349 -11.192117 -0.847388 71.508430 -15.890703 21.541918 179.531159 70.977356 179.986230 -0.789406 8.686752 -0.057425 -0.060773 -0.550788 0.000000 0.000000 0.000000 0.000000 0.000000 0.000000 0.000000 
